<svg width="99" height="73" viewBox="0 0 99 73" fill="none" xmlns="http://www.w3.org/2000/svg">
<path d="M22.0831 60.1937C19.955 60.32 17.7576 59.2792 17.6151 56.8765C17.2811 51.2472 16.6685 45.5656 16.3345 39.9363C16.0087 34.4444 15.9616 29.0048 15.6358 23.5128C15.5014 21.2474 16.8371 19.377 19.1712 19.2385C23.2215 18.9982 27.1951 18.6247 31.2454 18.3844C40.7877 17.8183 46.1237 20.6708 46.7305 30.8995C47.0116 35.6363 44.6955 39.5627 40.4038 41.5396C39.8022 41.8509 39.2047 42.2308 39.2495 42.9859C39.3228 44.2216 45.5467 53.9105 45.6689 55.97C45.8196 58.51 44.055 58.9591 41.9269 59.0854C39.8674 59.2076 38.4293 58.1906 37.5642 56.3819L31.4357 43.6562C31.2012 43.1878 30.7003 42.8731 30.1511 42.9057L25.277 43.1948C24.4532 43.2437 23.9366 43.8255 23.9855 44.6493C24.2258 48.6996 24.6679 52.669 24.9082 56.7194C25.0059 58.3669 23.7994 60.0919 22.0831 60.1937ZM33.4498 25.3494C30.4292 25.5286 27.2591 25.51 24.3234 25.9597C23.5037 26.0772 23.1163 26.5136 23.0965 27.3414C23.0331 29.7564 23.2565 32.361 23.4031 34.8324C23.452 35.6562 24.0337 36.1728 24.8575 36.1239L34.1939 35.5701C36.7339 35.4194 39.0267 33.4233 38.8678 30.746C38.6764 27.5194 36.8822 25.1458 33.4498 25.3494ZM26.2137 34.5968C25.3899 34.6456 24.8081 34.129 24.7592 33.3052C24.6696 31.7949 24.6487 30.2806 24.5591 28.7703C24.5061 27.8778 25.0309 27.4334 25.8506 27.3158C28.3138 27.0319 30.9266 26.9458 33.398 26.7992C35.8694 26.6526 37.2028 28.2269 37.3413 30.561C37.4553 32.4831 35.8205 33.9579 33.967 34.0679L26.2137 34.5968ZM14.8929 40.0218C15.2187 45.5138 15.815 50.9208 16.1408 56.4128C16.3608 60.1199 18.8735 61.8309 22.3746 61.6232C24.846 61.4765 26.4965 59.1052 26.358 56.7711C26.1462 53.2014 25.7285 49.6438 25.5167 46.074C25.4678 45.2502 25.9845 44.6685 26.8083 44.6196C27.838 44.5585 30.079 44.0122 30.6329 45.2194L36.3651 57.0731C37.3111 59.0837 39.1978 60.694 41.5319 60.5555C44.3465 60.3886 47.2618 59.5956 47.0581 56.1631C46.8342 52.3874 41.3265 45.4806 41.2206 43.6957C41.1799 43.0092 41.6441 42.7061 42.1729 42.3303C46.3512 39.6023 48.2513 35.6317 47.954 30.6203C47.2902 19.4304 41.114 16.3522 30.6793 16.9713C26.8349 17.1993 22.9219 17.4315 19.0898 17.8655C16.146 18.1779 13.9987 20.3031 14.1779 23.3237C14.5077 28.8843 14.563 34.4612 14.8929 40.0218ZM23.0099 64.2033C18.0671 64.4966 13.9226 61.9868 13.613 56.7694C13.2832 51.2088 12.6141 45.7372 12.2842 40.1766C11.9625 34.7533 11.9881 29.3783 11.6663 23.955C11.4098 19.63 14.1941 15.4692 18.725 15.2004C22.638 14.9682 26.6075 14.5261 30.5205 14.2939C42.1909 13.6016 49.8337 18.1773 50.5668 30.5342C50.8804 35.8202 49.1176 39.7827 45.3355 43.3827C44.9439 43.7504 44.6938 44.1786 44.7223 44.6591C44.816 46.238 49.3294 51.4816 49.586 55.8065C49.8792 60.7493 46.0115 62.9077 41.618 63.1683C38.1169 63.376 35.5919 61.4591 34.1003 58.3786L28.7642 47.397L28.4774 47.2073C28.4087 47.2114 28.2069 47.2923 28.215 47.4296C28.4064 50.6561 28.731 53.8058 28.9225 57.0323C29.1302 60.5335 26.6483 63.9875 23.0099 64.2033ZM28.1376 29.8669C27.5884 29.8995 27.1968 30.2672 27.2294 30.8164C27.2661 31.4342 27.6297 31.7571 28.2475 31.7205L33.1903 31.4272C33.6708 31.3987 34.4138 31.148 34.6639 30.7198L34.7082 30.3038C34.8047 29.6092 33.5609 29.5452 33.149 29.5696L28.1376 29.8669Z" fill="#509EC7"/>
<path d="M65.7806 55.1194C63.8164 55.0711 62.5831 54.1673 62.0299 52.2429C59.5659 43.6658 58.3157 34.5726 56.8938 25.8028C56.8433 25.6377 56.7954 25.3636 56.7994 25.1999C56.8478 23.2358 58.1255 22.3391 59.9805 22.3848C61.8901 22.4318 62.7389 23.4353 63.0219 25.2439C63.7235 30.0107 64.2042 34.8813 65.2344 39.6016C65.3355 39.9317 65.6199 41.6857 66.22 41.7004C66.8202 41.7152 67.2437 40.0332 67.3609 39.7086C68.8976 34.9422 70.0565 30.0028 71.7023 25.2391C72.2895 23.5612 73.2426 22.5474 75.0976 22.5931C77.0617 22.6414 77.9664 23.5917 78.4677 25.4056C79.824 30.1886 80.7398 35.1245 82.0402 39.9607C82.1399 40.3453 82.5347 42.0474 83.1349 42.0621C83.7351 42.0769 84.1613 40.2858 84.2239 39.9598C85.4306 35.2945 86.0943 30.5067 87.0828 25.836C87.3932 24.3151 88.1333 23.0777 89.8793 23.1206C91.516 23.1609 93.4055 24.0263 93.3585 25.9359C93.3518 26.2087 93.2905 26.4802 93.2292 26.7516C91.6093 34.9007 89.2862 44.9978 86.7455 52.8512C86.0956 54.8551 84.8765 55.5894 82.8032 55.5384C81.1119 55.4968 80.1593 54.2723 79.7591 52.7884C78.3125 47.2389 77.3051 41.5911 75.8585 36.0416C75.7587 35.657 75.4663 34.2304 74.8661 34.2156C74.266 34.2009 73.9037 35.6114 73.7852 35.9906C72.0673 41.4622 70.891 47.1109 69.0654 52.5252C68.5368 54.0408 67.4719 55.1611 65.7806 55.1194ZM55.6018 25.0613C55.5938 25.3886 55.6389 25.7719 55.6854 26.1006C56.6392 33.9308 58.9935 44.7435 60.9879 52.4356C61.6354 54.9628 63.3504 56.2607 65.9693 56.3251C68.1517 56.3788 69.6078 54.8861 70.2031 52.8808C71.3937 48.8702 72.4219 44.8011 73.667 40.7918C73.7855 40.4126 74.1492 38.9476 74.7493 38.9623C75.3495 38.9771 75.6951 40.4596 75.7949 40.8442C76.8971 44.8566 77.668 49.0246 78.6053 53.0876C79.048 55.0638 80.3731 56.6796 82.5555 56.7333C85.2289 56.7991 87.0043 55.6418 87.8313 53.0963C90.6064 44.5935 92.5699 35.7978 94.4228 27.054C94.4841 26.7825 94.6013 26.4578 94.608 26.185C94.6805 23.2388 92.3067 22.0885 89.6879 22.0241C87.56 21.9717 86.1558 23.5749 85.8346 25.5324C85.3256 28.4678 84.8153 31.4579 84.144 34.3348C84.08 34.7154 83.7083 36.5078 83.0536 36.4917C82.4535 36.4769 82.06 34.7202 81.9602 34.3356C81.1611 31.3134 80.4179 28.2379 79.6202 25.161C79.0232 22.7989 77.6355 21.5091 75.1258 21.4473C72.6706 21.3869 71.2212 22.6068 70.5087 24.9368C69.972 26.7797 67.6664 36.1676 66.5752 36.1407C65.9751 36.1259 65.692 34.3174 65.6455 33.9887C65.1165 31.0823 64.537 28.0108 64.2808 25.1111C64.0644 22.8129 62.7354 21.3607 60.3347 21.3016C57.825 21.2399 55.6703 22.2787 55.6018 25.0613ZM66.1365 58.4038C62.2082 58.3071 59.7933 56.6099 58.9052 52.7665C56.8818 44.0365 55.1311 35.3131 53.6014 26.486C53.5044 25.9923 53.4073 25.4986 53.4208 24.953C53.5255 20.6973 57.1149 19.0387 60.8795 19.1313C64.0985 19.2106 66.1167 21.4985 66.3689 24.5619C66.41 25.1089 66.7767 27.9567 67.0495 27.9635C67.4314 27.9729 68.3809 24.8844 68.5021 24.3961C69.5755 20.7102 71.9046 19.2389 75.6692 19.3316C78.7791 19.4081 81.1233 21.7587 81.7055 24.721C81.8026 25.2148 82.4899 28.3435 82.9263 28.3542C83.1991 28.3609 83.7054 25.5346 83.7721 25.0449C84.0615 22.1586 86.4667 19.8157 89.4129 19.8882C93.0684 19.9782 96.8965 21.9285 96.7944 26.0751C96.7796 26.6752 96.5493 27.1609 96.4813 27.7051C95.0103 36.4584 92.2884 45.017 89.8952 53.5292C88.8191 57.3242 86.1599 58.8966 82.2862 58.8012C76.6665 58.6629 76.5853 53.0925 75.4843 49.0255C75.3846 48.6409 75.0908 47.2688 74.4906 47.2541C73.9451 47.2406 73.5841 48.5966 73.4656 48.9758C72.2737 53.0409 71.8107 58.5434 66.1365 58.4038Z" fill="#509EC7"/>
</svg>
