<svg width="217" height="16" viewBox="0 0 217 16" fill="none" xmlns="http://www.w3.org/2000/svg">
<path d="M2.74739 15H0.0755165L4.94022 1.18182H8.03042L12.9019 15H10.23L6.5393 4.01562H6.43134L2.74739 15ZM2.8351 9.58203H10.122V11.5927H2.8351V9.58203ZM16.8664 8.92756V15H14.424V4.63636H16.7585V6.39737H16.8799C17.1183 5.81712 17.4984 5.35606 18.0202 5.0142C18.5465 4.67235 19.1964 4.50142 19.9701 4.50142C20.6853 4.50142 21.3083 4.65436 21.8391 4.96023C22.3744 5.2661 22.7882 5.70916 23.0806 6.28942C23.3774 6.86967 23.5236 7.57363 23.5191 8.40128V15H21.0767V8.77912C21.0767 8.08641 20.8967 7.54439 20.5369 7.15305C20.1815 6.76172 19.689 6.56605 19.0593 6.56605C18.6319 6.56605 18.2518 6.66051 17.919 6.84943C17.5906 7.03385 17.332 7.30149 17.1431 7.65234C16.9586 8.0032 16.8664 8.42827 16.8664 8.92756ZM25.8121 15V4.63636H28.2546V15H25.8121ZM27.0401 3.16548C26.6532 3.16548 26.3204 3.03729 26.0415 2.78089C25.7626 2.52 25.6232 2.20739 25.6232 1.84304C25.6232 1.47419 25.7626 1.16158 26.0415 0.905184C26.3204 0.644294 26.6532 0.513849 27.0401 0.513849C27.4314 0.513849 27.7643 0.644294 28.0386 0.905184C28.3175 1.16158 28.457 1.47419 28.457 1.84304C28.457 2.20739 28.3175 2.52 28.0386 2.78089C27.7643 3.03729 27.4314 3.16548 27.0401 3.16548ZM30.5762 15V4.63636H32.9107V6.39737H33.0322C33.2481 5.80362 33.6057 5.34032 34.1049 5.00746C34.6042 4.6701 35.2002 4.50142 35.8929 4.50142C36.5947 4.50142 37.1862 4.67235 37.6674 5.0142C38.1532 5.35156 38.4951 5.81262 38.693 6.39737H38.801C39.0304 5.82161 39.4172 5.36281 39.9615 5.02095C40.5103 4.6746 41.1602 4.50142 41.9114 4.50142C42.865 4.50142 43.6432 4.80279 44.2459 5.40554C44.8487 6.00829 45.15 6.88767 45.15 8.04368V15H42.7008V8.42152C42.7008 7.77829 42.5299 7.30824 42.188 7.01136C41.8462 6.70999 41.4279 6.5593 40.9331 6.5593C40.3438 6.5593 39.8828 6.74373 39.5499 7.11257C39.2215 7.47692 39.0574 7.95147 39.0574 8.53622V15H36.6621V8.32031C36.6621 7.78504 36.5002 7.35772 36.1763 7.03835C35.857 6.71899 35.4386 6.5593 34.9214 6.5593C34.5705 6.5593 34.2511 6.64927 33.9633 6.82919C33.6754 7.00462 33.446 7.25426 33.275 7.57812C33.1041 7.89749 33.0187 8.27083 33.0187 8.69815V15H30.5762ZM52.026 15.2024C50.9869 15.2024 50.0896 14.9865 49.3339 14.5547C48.5827 14.1184 48.0047 13.5021 47.5999 12.706C47.195 11.9053 46.9926 10.9629 46.9926 9.87891C46.9926 8.81286 47.195 7.87725 47.5999 7.07209C48.0092 6.26243 48.5805 5.63269 49.3137 5.18288C50.0468 4.72857 50.9082 4.50142 51.8978 4.50142C52.5365 4.50142 53.1393 4.60488 53.7061 4.81179C54.2773 5.0142 54.7811 5.32907 55.2174 5.75639C55.6582 6.18371 56.0046 6.72798 56.2565 7.3892C56.5084 8.04593 56.6343 8.8286 56.6343 9.73722V10.4862H48.1396V8.83984H54.2931C54.2886 8.37204 54.1873 7.95597 53.9894 7.59162C53.7915 7.22277 53.5149 6.93265 53.1595 6.72124C52.8087 6.50982 52.3994 6.40412 51.9315 6.40412C51.4323 6.40412 50.9937 6.52557 50.6159 6.76847C50.238 7.00687 49.9434 7.32173 49.732 7.71307C49.5251 8.0999 49.4194 8.52498 49.4149 8.98828V10.4254C49.4149 11.0282 49.5251 11.5455 49.7455 11.9773C49.9659 12.4046 50.274 12.733 50.6698 12.9624C51.0657 13.1873 51.529 13.2997 52.0597 13.2997C52.4151 13.2997 52.7367 13.2502 53.0246 13.1513C53.3125 13.0478 53.5621 12.8971 53.7735 12.6992C53.9849 12.5013 54.1446 12.2562 54.2526 11.9638L56.5331 12.2202C56.3892 12.8229 56.1148 13.3492 55.71 13.799C55.3096 14.2443 54.7968 14.5907 54.1716 14.8381C53.5464 15.081 52.8312 15.2024 52.026 15.2024ZM137.391 15H132.709V1.18182H137.486C138.858 1.18182 140.036 1.45845 141.021 2.01172C142.011 2.56049 142.771 3.3499 143.302 4.37997C143.833 5.41004 144.098 6.64252 144.098 8.07741C144.098 9.51681 143.831 10.7538 143.295 11.7884C142.764 12.8229 141.998 13.6168 140.994 14.1701C139.996 14.7234 138.795 15 137.391 15ZM135.212 12.8342H137.27C138.233 12.8342 139.036 12.6587 139.679 12.3079C140.322 11.9525 140.806 11.424 141.129 10.7223C141.453 10.0161 141.615 9.13447 141.615 8.07741C141.615 7.02036 141.453 6.14323 141.129 5.44602C140.806 4.74432 140.326 4.22029 139.692 3.87393C139.063 3.52308 138.28 3.34766 137.344 3.34766H135.212V12.8342ZM149.161 15.2092C148.504 15.2092 147.913 15.0922 147.386 14.8583C146.865 14.6199 146.451 14.2691 146.145 13.8058C145.843 13.3424 145.693 12.7712 145.693 12.092C145.693 11.5072 145.801 11.0237 146.017 10.6413C146.233 10.259 146.527 9.95312 146.901 9.72372C147.274 9.49432 147.694 9.32114 148.162 9.20419C148.635 9.08274 149.123 8.99503 149.626 8.94105C150.234 8.87808 150.726 8.82185 151.104 8.77237C151.482 8.71839 151.756 8.63743 151.927 8.52947C152.103 8.41702 152.19 8.24384 152.19 8.00994V7.96946C152.19 7.46117 152.04 7.06759 151.738 6.78871C151.437 6.50982 151.003 6.37038 150.436 6.37038C149.838 6.37038 149.363 6.50083 149.012 6.76172C148.666 7.02261 148.432 7.33073 148.311 7.68608L146.03 7.36222C146.21 6.73248 146.507 6.2062 146.921 5.78338C147.335 5.35606 147.841 5.03669 148.439 4.82528C149.037 4.60938 149.698 4.50142 150.423 4.50142C150.922 4.50142 151.419 4.5599 151.914 4.67685C152.408 4.7938 152.86 4.98722 153.27 5.2571C153.679 5.52249 154.008 5.88459 154.255 6.34339C154.507 6.8022 154.633 7.37571 154.633 8.06392V15H152.285V13.5763H152.204C152.055 13.8642 151.846 14.1341 151.576 14.386C151.311 14.6334 150.976 14.8336 150.571 14.9865C150.171 15.1349 149.701 15.2092 149.161 15.2092ZM149.795 13.4144C150.285 13.4144 150.71 13.3177 151.07 13.1243C151.43 12.9264 151.707 12.6655 151.9 12.3416C152.098 12.0178 152.197 11.6647 152.197 11.2823V10.0611C152.121 10.1241 151.99 10.1825 151.806 10.2365C151.626 10.2905 151.423 10.3377 151.198 10.3782C150.974 10.4187 150.751 10.4547 150.53 10.4862C150.31 10.5176 150.119 10.5446 149.957 10.5671C149.593 10.6166 149.267 10.6976 148.979 10.81C148.691 10.9225 148.464 11.0799 148.297 11.2823C148.131 11.4802 148.048 11.7366 148.048 12.0515C148.048 12.5013 148.212 12.8409 148.54 13.0703C148.868 13.2997 149.287 13.4144 149.795 13.4144ZM162.074 4.63636V6.52557H156.116V4.63636H162.074ZM157.587 2.15341H160.029V11.8828C160.029 12.2112 160.079 12.4631 160.178 12.6385C160.281 12.8094 160.416 12.9264 160.583 12.9893C160.749 13.0523 160.934 13.0838 161.136 13.0838C161.289 13.0838 161.428 13.0726 161.554 13.0501C161.685 13.0276 161.784 13.0073 161.851 12.9893L162.263 14.8988C162.132 14.9438 161.946 14.9933 161.703 15.0472C161.464 15.1012 161.172 15.1327 160.826 15.1417C160.214 15.1597 159.663 15.0675 159.173 14.8651C158.682 14.6581 158.293 14.3388 158.005 13.907C157.722 13.4751 157.582 12.9354 157.587 12.2876V2.15341ZM166.909 15.2092C166.252 15.2092 165.661 15.0922 165.134 14.8583C164.612 14.6199 164.199 14.2691 163.893 13.8058C163.591 13.3424 163.441 12.7712 163.441 12.092C163.441 11.5072 163.549 11.0237 163.765 10.6413C163.98 10.259 164.275 9.95312 164.648 9.72372C165.022 9.49432 165.442 9.32114 165.91 9.20419C166.382 9.08274 166.871 8.99503 167.374 8.94105C167.982 8.87808 168.474 8.82185 168.852 8.77237C169.23 8.71839 169.504 8.63743 169.675 8.52947C169.851 8.41702 169.938 8.24384 169.938 8.00994V7.96946C169.938 7.46117 169.788 7.06759 169.486 6.78871C169.185 6.50982 168.751 6.37038 168.184 6.37038C167.586 6.37038 167.111 6.50083 166.76 6.76172C166.414 7.02261 166.18 7.33073 166.059 7.68608L163.778 7.36222C163.958 6.73248 164.255 6.2062 164.669 5.78338C165.083 5.35606 165.589 5.03669 166.187 4.82528C166.785 4.60938 167.446 4.50142 168.17 4.50142C168.67 4.50142 169.167 4.5599 169.662 4.67685C170.156 4.7938 170.608 4.98722 171.018 5.2571C171.427 5.52249 171.755 5.88459 172.003 6.34339C172.255 6.8022 172.381 7.37571 172.381 8.06392V15H170.033V13.5763H169.952C169.803 13.8642 169.594 14.1341 169.324 14.386C169.059 14.6334 168.724 14.8336 168.319 14.9865C167.919 15.1349 167.449 15.2092 166.909 15.2092ZM167.543 13.4144C168.033 13.4144 168.458 13.3177 168.818 13.1243C169.178 12.9264 169.455 12.6655 169.648 12.3416C169.846 12.0178 169.945 11.6647 169.945 11.2823V10.0611C169.869 10.1241 169.738 10.1825 169.554 10.2365C169.374 10.2905 169.171 10.3377 168.946 10.3782C168.721 10.4187 168.499 10.4547 168.278 10.4862C168.058 10.5176 167.867 10.5446 167.705 10.5671C167.341 10.6166 167.014 10.6976 166.727 10.81C166.439 10.9225 166.212 11.0799 166.045 11.2823C165.879 11.4802 165.795 11.7366 165.795 12.0515C165.795 12.5013 165.96 12.8409 166.288 13.0703C166.616 13.2997 167.035 13.4144 167.543 13.4144ZM174.755 15V1.18182H177.197V6.35014H177.298C177.424 6.09825 177.602 5.83061 177.831 5.54723C178.061 5.25935 178.371 5.0142 178.762 4.81179C179.154 4.60488 179.653 4.50142 180.26 4.50142C181.061 4.50142 181.783 4.70608 182.426 5.11541C183.074 5.52024 183.587 6.12074 183.964 6.9169C184.347 7.70857 184.538 8.68016 184.538 9.83168C184.538 10.9697 184.351 11.9368 183.978 12.733C183.605 13.5291 183.096 14.1364 182.453 14.5547C181.81 14.973 181.081 15.1822 180.267 15.1822C179.673 15.1822 179.181 15.0832 178.789 14.8853C178.398 14.6874 178.083 14.449 177.845 14.1701C177.611 13.8867 177.429 13.6191 177.298 13.3672H177.157V15H174.755ZM177.15 9.81818C177.15 10.4884 177.244 11.0754 177.433 11.5792C177.627 12.083 177.903 12.4766 178.263 12.7599C178.627 13.0388 179.068 13.1783 179.586 13.1783C180.125 13.1783 180.577 13.0343 180.942 12.7464C181.306 12.4541 181.58 12.056 181.765 11.5522C181.954 11.0439 182.048 10.4659 182.048 9.81818C182.048 9.17495 181.956 8.60369 181.772 8.1044C181.587 7.60511 181.313 7.21378 180.949 6.9304C180.584 6.64702 180.13 6.50533 179.586 6.50533C179.064 6.50533 178.621 6.64252 178.256 6.9169C177.892 7.19129 177.615 7.57588 177.426 8.07067C177.242 8.56546 177.15 9.14796 177.15 9.81818ZM189.407 15.2092C188.75 15.2092 188.158 15.0922 187.632 14.8583C187.11 14.6199 186.697 14.2691 186.391 13.8058C186.089 13.3424 185.939 12.7712 185.939 12.092C185.939 11.5072 186.047 11.0237 186.263 10.6413C186.478 10.259 186.773 9.95312 187.146 9.72372C187.52 9.49432 187.94 9.32114 188.408 9.20419C188.88 9.08274 189.368 8.99503 189.872 8.94105C190.479 8.87808 190.972 8.82185 191.35 8.77237C191.728 8.71839 192.002 8.63743 192.173 8.52947C192.348 8.41702 192.436 8.24384 192.436 8.00994V7.96946C192.436 7.46117 192.285 7.06759 191.984 6.78871C191.683 6.50982 191.249 6.37038 190.682 6.37038C190.084 6.37038 189.609 6.50083 189.258 6.76172C188.912 7.02261 188.678 7.33073 188.557 7.68608L186.276 7.36222C186.456 6.73248 186.753 6.2062 187.167 5.78338C187.58 5.35606 188.086 5.03669 188.685 4.82528C189.283 4.60938 189.944 4.50142 190.668 4.50142C191.168 4.50142 191.665 4.5599 192.16 4.67685C192.654 4.7938 193.106 4.98722 193.516 5.2571C193.925 5.52249 194.253 5.88459 194.501 6.34339C194.753 6.8022 194.879 7.37571 194.879 8.06392V15H192.531V13.5763H192.45C192.301 13.8642 192.092 14.1341 191.822 14.386C191.557 14.6334 191.222 14.8336 190.817 14.9865C190.417 15.1349 189.946 15.2092 189.407 15.2092ZM190.041 13.4144C190.531 13.4144 190.956 13.3177 191.316 13.1243C191.676 12.9264 191.953 12.6655 192.146 12.3416C192.344 12.0178 192.443 11.6647 192.443 11.2823V10.0611C192.366 10.1241 192.236 10.1825 192.052 10.2365C191.872 10.2905 191.669 10.3377 191.444 10.3782C191.219 10.4187 190.997 10.4547 190.776 10.4862C190.556 10.5176 190.365 10.5446 190.203 10.5671C189.838 10.6166 189.512 10.6976 189.225 10.81C188.937 10.9225 188.709 11.0799 188.543 11.2823C188.377 11.4802 188.293 11.7366 188.293 12.0515C188.293 12.5013 188.458 12.8409 188.786 13.0703C189.114 13.2997 189.533 13.4144 190.041 13.4144ZM205.336 7.37571L203.109 7.61861C203.046 7.3937 202.936 7.18229 202.778 6.98438C202.626 6.78646 202.419 6.62678 202.158 6.50533C201.897 6.38388 201.577 6.32315 201.2 6.32315C200.691 6.32315 200.264 6.43336 199.918 6.65376C199.576 6.87417 199.407 7.1598 199.412 7.51065C199.407 7.81203 199.517 8.05717 199.742 8.24609C199.972 8.43501 200.349 8.5902 200.876 8.71165L202.644 9.08949C203.624 9.3009 204.353 9.63601 204.83 10.0948C205.311 10.5536 205.554 11.1541 205.558 11.8963C205.554 12.5485 205.363 13.1243 204.985 13.6236C204.611 14.1184 204.092 14.5052 203.426 14.7841C202.76 15.063 201.996 15.2024 201.132 15.2024C199.864 15.2024 198.843 14.937 198.069 14.4062C197.295 13.871 196.834 13.1265 196.686 12.1729L199.068 11.9435C199.175 12.4113 199.405 12.7644 199.756 13.0028C200.107 13.2412 200.563 13.3604 201.125 13.3604C201.706 13.3604 202.171 13.2412 202.522 13.0028C202.877 12.7644 203.055 12.4698 203.055 12.119C203.055 11.8221 202.94 11.5769 202.711 11.3835C202.486 11.1901 202.135 11.0417 201.658 10.9382L199.891 10.5671C198.897 10.3602 198.161 10.0116 197.684 9.52131C197.208 9.02651 196.971 8.40128 196.976 7.6456C196.971 7.00687 197.145 6.4536 197.495 5.98579C197.851 5.51349 198.343 5.14915 198.973 4.89276C199.607 4.63187 200.338 4.50142 201.166 4.50142C202.38 4.50142 203.336 4.76006 204.033 5.27734C204.735 5.79463 205.169 6.49408 205.336 7.37571ZM211.97 15.2024C210.931 15.2024 210.034 14.9865 209.278 14.5547C208.527 14.1184 207.949 13.5021 207.544 12.706C207.139 11.9053 206.937 10.9629 206.937 9.87891C206.937 8.81286 207.139 7.87725 207.544 7.07209C207.954 6.26243 208.525 5.63269 209.258 5.18288C209.991 4.72857 210.853 4.50142 211.842 4.50142C212.481 4.50142 213.084 4.60488 213.65 4.81179C214.222 5.0142 214.725 5.32907 215.162 5.75639C215.603 6.18371 215.949 6.72798 216.201 7.3892C216.453 8.04593 216.579 8.8286 216.579 9.73722V10.4862H208.084V8.83984H214.237C214.233 8.37204 214.132 7.95597 213.934 7.59162C213.736 7.22277 213.459 6.93265 213.104 6.72124C212.753 6.50982 212.344 6.40412 211.876 6.40412C211.377 6.40412 210.938 6.52557 210.56 6.76847C210.182 7.00687 209.888 7.32173 209.676 7.71307C209.469 8.0999 209.364 8.52498 209.359 8.98828V10.4254C209.359 11.0282 209.469 11.5455 209.69 11.9773C209.91 12.4046 210.218 12.733 210.614 12.9624C211.01 13.1873 211.473 13.2997 212.004 13.2997C212.359 13.2997 212.681 13.2502 212.969 13.1513C213.257 13.0478 213.506 12.8971 213.718 12.6992C213.929 12.5013 214.089 12.2562 214.197 11.9638L216.477 12.2202C216.334 12.8229 216.059 13.3492 215.654 13.799C215.254 14.2443 214.741 14.5907 214.116 14.8381C213.491 15.081 212.776 15.2024 211.97 15.2024Z" fill="white"/>
<path d="M63.1415 15V1.18182H68.3233C69.3849 1.18182 70.2755 1.36624 70.9952 1.73508C71.7194 2.10393 72.2659 2.62121 72.6347 3.28693C73.0081 3.94815 73.1948 4.71958 73.1948 5.60121C73.1948 6.48733 73.0058 7.25651 72.628 7.90874C72.2546 8.55646 71.7036 9.058 70.9749 9.41335C70.2462 9.7642 69.3511 9.93963 68.2896 9.93963H64.5989V7.86151H67.9522C68.5729 7.86151 69.0812 7.77604 69.4771 7.60511C69.8729 7.42969 70.1653 7.17554 70.3542 6.84268C70.5476 6.50533 70.6443 6.0915 70.6443 5.60121C70.6443 5.11091 70.5476 4.69259 70.3542 4.34624C70.1608 3.99538 69.8662 3.72999 69.4703 3.55007C69.0745 3.36565 68.564 3.27344 67.9387 3.27344H65.6447V15H63.1415ZM70.28 8.73864L73.7008 15H70.9075L67.5474 8.73864H70.28ZM79.6406 15.2024C78.6015 15.2024 77.7041 14.9865 76.9485 14.5547C76.1973 14.1184 75.6193 13.5021 75.2144 12.706C74.8096 11.9053 74.6072 10.9629 74.6072 9.87891C74.6072 8.81286 74.8096 7.87725 75.2144 7.07209C75.6238 6.26243 76.195 5.63269 76.9282 5.18288C77.6614 4.72857 78.5228 4.50142 79.5124 4.50142C80.1511 4.50142 80.7539 4.60488 81.3206 4.81179C81.8919 5.0142 82.3957 5.32907 82.832 5.75639C83.2728 6.18371 83.6192 6.72798 83.871 7.3892C84.1229 8.04593 84.2489 8.8286 84.2489 9.73722V10.4862H75.7542V8.83984H81.9076C81.9031 8.37204 81.8019 7.95597 81.604 7.59162C81.4061 7.22277 81.1295 6.93265 80.7741 6.72124C80.4232 6.50982 80.0139 6.40412 79.5461 6.40412C79.0468 6.40412 78.6083 6.52557 78.2304 6.76847C77.8526 7.00687 77.558 7.32173 77.3465 7.71307C77.1396 8.0999 77.0339 8.52498 77.0294 8.98828V10.4254C77.0294 11.0282 77.1396 11.5455 77.36 11.9773C77.5804 12.4046 77.8886 12.733 78.2844 12.9624C78.6802 13.1873 79.1435 13.2997 79.6743 13.2997C80.0297 13.2997 80.3513 13.2502 80.6392 13.1513C80.927 13.0478 81.1767 12.8971 81.3881 12.6992C81.5995 12.5013 81.7592 12.2562 81.8671 11.9638L84.1477 12.2202C84.0037 12.8229 83.7294 13.3492 83.3245 13.799C82.9242 14.2443 82.4114 14.5907 81.7862 14.8381C81.1609 15.081 80.4457 15.2024 79.6406 15.2024ZM95.0854 4.63636L91.3947 15H88.6959L85.0052 4.63636H87.6096L89.9913 12.3349H90.0993L92.4878 4.63636H95.0854ZM96.5856 15V4.63636H99.0281V15H96.5856ZM97.8136 3.16548C97.4267 3.16548 97.0939 3.03729 96.815 2.78089C96.5361 2.52 96.3967 2.20739 96.3967 1.84304C96.3967 1.47419 96.5361 1.16158 96.815 0.905184C97.0939 0.644294 97.4267 0.513849 97.8136 0.513849C98.2049 0.513849 98.5378 0.644294 98.8122 0.905184C99.091 1.16158 99.2305 1.47419 99.2305 1.84304C99.2305 2.20739 99.091 2.52 98.8122 2.78089C98.5378 3.03729 98.2049 3.16548 97.8136 3.16548ZM105.938 15.2024C104.899 15.2024 104.001 14.9865 103.246 14.5547C102.494 14.1184 101.916 13.5021 101.512 12.706C101.107 11.9053 100.904 10.9629 100.904 9.87891C100.904 8.81286 101.107 7.87725 101.512 7.07209C101.921 6.26243 102.492 5.63269 103.225 5.18288C103.959 4.72857 104.82 4.50142 105.81 4.50142C106.448 4.50142 107.051 4.60488 107.618 4.81179C108.189 5.0142 108.693 5.32907 109.129 5.75639C109.57 6.18371 109.916 6.72798 110.168 7.3892C110.42 8.04593 110.546 8.8286 110.546 9.73722V10.4862H102.051V8.83984H108.205C108.2 8.37204 108.099 7.95597 107.901 7.59162C107.703 7.22277 107.427 6.93265 107.071 6.72124C106.72 6.50982 106.311 6.40412 105.843 6.40412C105.344 6.40412 104.905 6.52557 104.528 6.76847C104.15 7.00687 103.855 7.32173 103.644 7.71307C103.437 8.0999 103.331 8.52498 103.327 8.98828V10.4254C103.327 11.0282 103.437 11.5455 103.657 11.9773C103.878 12.4046 104.186 12.733 104.582 12.9624C104.977 13.1873 105.441 13.2997 105.972 13.2997C106.327 13.2997 106.648 13.2502 106.936 13.1513C107.224 13.0478 107.474 12.8971 107.685 12.6992C107.897 12.5013 108.056 12.2562 108.164 11.9638L110.445 12.2202C110.301 12.8229 110.027 13.3492 109.622 13.799C109.221 14.2443 108.709 14.5907 108.083 14.8381C107.458 15.081 106.743 15.2024 105.938 15.2024ZM114.506 15L111.577 4.63636H114.067L115.889 11.9233H115.983L117.845 4.63636H120.308L122.17 11.8828H122.272L124.066 4.63636H126.563L123.628 15H121.084L119.141 7.99645H118.999L117.056 15H114.506Z" fill="#F8FF2B"/>
</svg>
