<svg width="259" height="151" viewBox="0 0 259 151" fill="none" xmlns="http://www.w3.org/2000/svg">
<path d="M33.0797 68.4204C30.9521 68.2858 28.8983 66.9844 29.0502 64.5823C29.4063 58.9544 29.4922 53.2405 29.8483 47.6126C30.1957 42.1219 30.8133 36.7173 31.1607 31.2267C31.304 28.9618 32.8582 27.2685 35.1917 27.4162C39.2411 27.6724 43.2305 27.787 47.2798 28.0432C56.8198 28.6468 61.7675 32.1296 61.1205 42.3559C60.8208 47.0916 58.0426 50.7057 53.5415 52.1436C52.9064 52.3791 52.267 52.6831 52.2193 53.4381C52.1411 54.6735 57.135 65.05 57.0047 67.109C56.8441 69.6484 55.0379 69.8787 52.9103 69.744C50.8513 69.6138 49.5481 68.4288 48.9104 66.5279L44.3821 53.149C44.2066 52.6555 43.7479 52.2819 43.1988 52.2472L38.3259 51.9389C37.5023 51.8868 36.9185 52.4011 36.8663 53.2247C36.6101 57.274 36.5642 61.2678 36.308 65.3171C36.2037 66.9643 34.7955 68.529 33.0797 68.4204ZM48.617 35.2253C45.5971 35.0342 42.453 34.6286 39.4845 34.7164C38.6565 34.7329 38.2187 35.1186 38.0979 35.9379C37.74 38.327 37.6437 40.9394 37.4873 43.4102C37.4352 44.2338 37.9495 44.8176 38.7731 44.8697L48.1072 45.4603C50.6466 45.6209 53.166 43.9198 53.3354 41.2432C53.5395 38.0174 52.0486 35.4424 48.617 35.2253ZM40.3056 43.5196C39.482 43.4675 38.9677 42.8837 39.0198 42.0601C39.1153 40.5502 39.2795 39.0446 39.375 37.5346C39.4315 36.6424 40.0066 36.2654 40.8346 36.2488C43.314 36.2679 45.9177 36.5015 48.3885 36.6579C50.8593 36.8142 51.9905 38.5396 51.8428 40.8731C51.7212 42.7948 49.9186 44.0589 48.0655 43.9417L40.3056 43.5196ZM28.407 47.5214C28.0596 53.012 27.9911 58.4514 27.6437 63.942C27.4092 67.6482 29.6941 69.6533 33.1944 69.8748C35.6652 70.0311 37.5929 67.8791 37.7406 65.5456C37.9664 61.9767 37.9863 58.3947 38.2121 54.8258C38.2642 54.0022 38.848 53.4879 39.6716 53.54C40.7011 53.6051 42.9921 53.3366 43.3943 54.6024L47.6359 67.0675C48.3292 69.1786 50.0051 71.0073 52.3386 71.1549C55.1526 71.333 58.1429 70.902 58.36 67.4704C58.5989 63.6956 53.976 56.1677 54.0889 54.3833C54.1323 53.697 54.6301 53.4528 55.2009 53.1444C59.6811 50.9472 62.0519 47.2384 62.3689 42.2282C63.0767 31.041 57.3228 27.2315 46.8906 26.5715C43.0471 26.3283 39.135 26.0808 35.2786 26.0435C32.3187 25.994 29.9278 27.8411 29.7368 30.8609C29.385 36.4202 28.7588 41.9621 28.407 47.5214ZM33.5098 72.5132C28.5682 72.2005 24.7612 69.2034 25.0912 63.9873C25.443 58.428 25.4472 52.9156 25.799 47.3564C26.142 41.9344 26.8239 36.6027 27.167 31.1807C27.4405 26.8568 30.7122 23.0672 35.242 23.3538C39.1541 23.6013 43.1478 23.6473 47.0599 23.8948C58.7275 24.633 65.7542 30.1079 64.9726 42.4618C64.6382 47.7465 62.4047 51.4641 58.2112 54.5752C57.7777 54.8923 57.4771 55.2867 57.4467 55.7672C57.3468 57.3457 61.186 63.1013 60.9125 67.4251C60.5998 72.3667 56.4975 74.0366 52.105 73.7587C48.6047 73.5372 46.3328 71.3262 45.2286 68.0866L41.2737 56.5355L41.0122 56.3122C40.9435 56.3079 40.7333 56.3635 40.7246 56.5008C40.5205 59.7265 40.458 62.8923 40.2539 66.118C40.0325 69.6183 37.1473 72.7434 33.5098 72.5132ZM42.7928 39.0601C42.2438 39.0254 41.8102 39.3425 41.7755 39.8916C41.7364 40.5093 42.0579 40.8741 42.6756 40.9132L47.6171 41.2259C48.0976 41.2563 48.8656 41.0982 49.1661 40.7037L49.2608 40.2963C49.4415 39.6186 48.2148 39.4032 47.803 39.3771L42.7928 39.0601Z" fill="#509EC7"/>
<path d="M92.9118 60.6505C94.0818 65.2491 87.1261 69.1477 83.4605 70.0803C76.7958 71.776 70.087 66.8835 68.4592 60.4854C66.4922 52.7544 68.4609 44.8735 76.9917 42.703C83.6564 41.0073 89.7957 45.3351 91.4405 51.7998C91.8645 53.466 90.9712 55.2544 89.2384 55.6953L75.4425 59.2054L75.2934 59.4562C76.0734 62.5219 79.0189 64.8948 82.2846 64.0639C87.8829 62.6396 86.8012 59.2248 89.5337 58.5296C90.9333 58.1735 92.5727 59.3175 92.9118 60.6505ZM78.2646 47.9851C76.3985 48.4599 73.6392 50.7231 74.1987 52.9224C74.3853 53.6555 75.1196 53.7526 75.7194 53.5999C78.052 53.0065 80.3011 52.3633 82.6337 51.7698C83.2335 51.6172 83.8988 51.1641 83.7123 50.4309C83.1866 48.3649 80.0641 47.5272 78.2646 47.9851ZM78.6207 49.3847C79.2205 49.2321 81.1217 49.1741 81.3252 49.9739C81.4778 50.5737 80.6453 50.9274 80.2455 51.0292L77.7129 51.6735C77.313 51.7753 76.4127 51.8624 76.2601 51.2626C76.0566 50.4628 77.9543 49.5542 78.6207 49.3847ZM83.716 71.3635C88.248 70.2105 91.2763 68.4465 93.527 64.1839C94.2057 62.9468 94.6008 61.7109 94.2447 60.3113C93.6682 58.0453 91.2776 56.7376 89.0783 57.2972C85.7459 58.145 86.6774 61.5271 82.212 62.6632C80.9457 62.9853 78.0413 62.447 77.6513 60.9141C77.4987 60.3143 78.0973 59.8782 78.6305 59.7425L89.0274 57.0972C91.7599 56.402 93.6044 54.7264 92.8413 51.7273C90.976 44.3961 84.2503 39.437 76.6525 41.3701C67.5219 43.6932 65.0405 52.627 67.1601 60.9578C68.9576 68.0224 76.4515 73.2118 83.716 71.3635ZM84.3434 73.8295C75.8793 75.983 66.8635 69.8325 64.7609 61.5683C62.3191 51.9711 65.5785 41.633 76.0421 38.9708C84.1064 36.919 92.9187 42.2698 94.9705 50.334C95.4283 52.1335 95.702 53.7669 95.2425 55.5869C95.1274 55.971 95.1116 56.1879 95.2133 56.5878C95.4507 57.5208 96.254 58.168 96.5253 59.2343C98.1362 65.5658 91.2081 72.0829 85.6097 73.5073L84.3434 73.8295Z" fill="#509EC7"/>
<path d="M178.13 60.3776C177.855 65.1148 170.046 66.7275 166.27 66.508C159.405 66.1089 154.489 59.4168 154.872 52.826C155.335 44.8621 159.595 37.9455 168.383 38.4563C175.248 38.8554 179.791 44.837 179.404 51.4965C179.305 53.2128 177.912 54.6474 176.127 54.5436L161.916 53.7176L161.698 53.9116C161.514 57.0697 163.604 60.2222 166.968 60.4177C172.735 60.7529 172.737 57.1709 175.552 57.3345C176.994 57.4183 178.21 59.0045 178.13 60.3776ZM167.999 43.876C166.077 43.7643 162.762 45.0871 162.63 47.3527C162.586 48.1079 163.257 48.4224 163.875 48.4583C166.278 48.598 168.616 48.665 171.019 48.8047C171.637 48.8406 172.408 48.6099 172.452 47.8547C172.576 45.7264 169.853 43.9837 167.999 43.876ZM167.915 45.3177C168.533 45.3536 170.363 45.8733 170.315 46.6972C170.279 47.3151 169.378 47.4005 168.966 47.3766L166.358 47.2249C165.946 47.201 165.061 47.0118 165.097 46.3939C165.145 45.57 167.229 45.2778 167.915 45.3177ZM166.126 67.8084C170.794 68.0798 174.214 67.3142 177.648 63.9317C178.669 62.9577 179.42 61.8992 179.503 60.4574C179.639 58.1232 177.756 56.1538 175.49 56.0221C172.058 55.8226 171.923 59.3279 167.323 59.0606C166.018 58.9847 163.413 57.5933 163.505 56.0143C163.54 55.3964 164.243 55.1617 164.792 55.1936L175.502 55.8161C178.317 55.9798 180.582 54.9403 180.761 51.8509C181.2 44.2989 176.289 37.5381 168.463 37.0832C159.057 36.5365 153.99 44.3017 153.491 52.8835C153.068 60.1608 158.642 67.3734 166.126 67.8084ZM165.978 70.3486C157.259 69.8418 150.525 61.2529 151.02 52.7398C151.594 42.8536 157.828 33.9851 168.606 34.6117C176.913 35.0945 183.695 42.8595 183.212 51.1667C183.105 53.0204 182.871 54.6601 181.883 56.2559C181.657 56.5872 181.577 56.7892 181.553 57.2011C181.497 58.1623 182.067 59.0221 182.003 60.1205C181.624 66.6427 173.049 70.7597 167.282 70.4244L165.978 70.3486Z" fill="#509EC7"/>
<path d="M109.749 70.107C107.832 69.92 106.31 68.5277 105.724 66.7431C104.931 64.2473 100.133 46.8504 100.26 45.5499C100.467 43.4281 101.568 42.7754 103.621 42.9758C105.537 43.1628 106.587 44.44 107.036 46.2112C107.921 49.8906 108.731 53.6317 109.684 57.3178C109.842 57.8169 110.064 59.0823 110.817 59.1558C111.57 59.2293 112.033 58.0307 112.285 57.5716C113.932 54.1393 115.519 50.632 117.173 47.1313C118.038 45.3501 119.295 44.5054 121.348 44.7058C122.922 44.8594 123.754 46.2534 123.607 47.7592C123.467 49.1965 115.677 65.296 114.348 67.5847C113.353 69.2841 111.733 70.3007 109.749 70.107ZM109.608 71.5444C112.209 71.7982 114.423 70.3559 115.608 68.1223C117.304 64.902 124.68 50.2132 124.947 47.4754C125.181 45.0798 123.193 43.5039 121.003 43.2901C114.637 42.6689 113.62 55.2144 111.225 54.9806C108.624 54.7268 110.667 42.2815 103.755 41.6069C101.427 41.3798 99.2538 42.4114 99.0067 44.9439C98.7529 47.5448 103.335 63.6079 104.445 67.1019C105.183 69.4541 107.076 71.2972 109.608 71.5444ZM109.847 74.0551C106.082 73.6878 103.278 71.2721 102.106 67.7029C100.824 63.8465 96.2437 48.4746 96.5577 45.2577C96.9918 40.8088 100.155 38.8373 104.399 39.2514C111.38 39.9327 110.215 47.6269 111.926 47.7939C113.774 47.9743 113.708 40.1598 121.1 40.8812C124.727 41.2352 127.704 44.0132 127.336 47.7776C127.229 48.8728 127.074 49.7559 126.625 50.8176C123.882 56.9759 120.865 63.1075 117.725 69.0889C116.274 71.9185 113.201 74.3824 109.847 74.0551Z" fill="#509EC7"/>
<path d="M197.25 64.3971C194.786 64.1566 193.634 63.215 193.04 60.8077C192.197 57.4088 188.678 42.486 188.919 40.022C189.099 38.174 190.425 37.336 192.204 37.5096C194.121 37.6967 195.301 39.0556 195.675 40.8886C196 42.5096 196.933 52.0669 198.165 52.1871C199.466 52.314 202.523 42.9388 203.073 41.5415C203.706 40.014 205.017 38.6218 206.796 38.7955C209.123 39.0226 210.275 39.9641 210.808 42.2963C211.195 43.9924 212.415 53.4396 213.442 53.5398C214.605 53.6533 217.499 44.5385 218.056 43.0728C218.709 41.34 219.993 40.2215 221.978 40.4152C223.963 40.6089 225.019 41.8176 224.826 43.8025C224.632 45.7874 218.173 60.2893 216.79 63.1255C215.749 65.3041 214.293 66.0602 211.897 65.8265C209.981 65.6394 209.026 64.0952 208.707 62.4058C208.382 60.7848 207.14 50.8519 206.045 50.745C204.881 50.6314 201.818 60.0751 201.178 61.671C200.47 63.2603 199.098 64.5774 197.25 64.3971ZM187.577 39.6146C187.269 42.7631 190.548 57.317 191.562 61.0782C192.364 64.1966 194.379 65.4988 197.459 65.7994C203.55 66.3938 203.265 55.8633 205.455 56.077C207.782 56.3041 205.398 66.5742 211.558 67.1753C214.57 67.4692 216.812 66.4443 218.119 63.6698C219.515 60.6966 226.036 46.2699 226.263 43.9427C226.55 40.9996 224.644 39.2934 221.838 39.0196C215.404 38.3917 216.188 48.7637 213.861 48.5366C211.397 48.2961 214.664 38.1813 207.067 37.4399C200.565 36.8054 201.055 47.356 198.728 47.1289C196.401 46.9018 199.312 36.8905 192.536 36.2292C190.141 35.9954 187.837 36.9453 187.577 39.6146ZM197.355 68.2767C192.975 67.8493 190.13 65.8442 189.032 61.5221C187.823 56.9129 184.561 43.6044 184.969 39.4292C185.37 35.3225 189.423 33.4379 193.188 33.8053C197.157 34.1927 198.252 37.1325 199.827 37.2861C201.332 37.4331 203.064 34.5618 207.581 35.0026C211.962 35.4301 213.037 38.5753 214.679 38.7356C216.322 38.8959 217.828 36.2099 221.798 36.5973C225.973 37.0047 229.298 39.7476 228.864 44.1966C228.583 47.0713 222.151 61.2993 220.516 64.5947C218.535 68.6162 215.288 70.0268 210.976 69.606C207.211 69.2386 206.15 65.9565 204.507 65.7962C202.933 65.6426 201.188 68.6508 197.355 68.2767Z" fill="#509EC7"/>
<path d="M141.412 70.9555C138.816 71.2573 137.669 69.729 137.255 67.354C136.856 65.1157 136.654 62.7852 136.392 60.531C135.852 55.8859 135.168 51.1884 134.833 46.5195C134.631 44.189 135.862 42.8689 138.185 42.5988C140.37 42.3447 142.016 43.3996 142.278 45.6538C143.088 52.6214 143.754 59.5366 144.564 66.5042C144.834 68.8268 143.871 70.6696 141.412 70.9555ZM137.495 38.4558C135.036 38.7417 132.817 36.9227 132.531 34.4635C132.253 32.0727 133.972 29.5881 136.431 29.3022C139.232 28.9766 141.217 31.1689 141.527 33.833C141.789 36.0872 139.613 38.2096 137.495 38.4558ZM137.662 39.8903C140.599 39.5488 143.319 36.7402 142.962 33.6662C142.564 30.2507 139.816 27.4547 136.264 27.8677C133.054 28.241 130.739 31.5563 131.104 34.6986C131.485 37.9775 134.383 40.2715 137.662 39.8903ZM141.579 72.39C144.585 72.0405 146.396 69.753 146.046 66.7473C145.22 59.6431 144.591 52.4467 143.765 45.3424C143.4 42.2002 141.023 40.8149 138.018 41.1643C135.012 41.5138 132.888 43.4916 133.253 46.6338C134.064 53.6014 135.01 60.5532 135.82 67.5208C136.194 70.7314 138.232 72.7791 141.579 72.39ZM141.889 75.0541C134.716 75.888 133.113 69.8433 132.446 64.1053C131.803 58.5721 131.296 53.0231 130.653 47.49C130.319 44.621 131.628 42.1841 131.533 41.3644C131.406 40.2714 128.901 38.9703 128.472 35.2816C127.948 30.7731 131.233 25.6833 135.946 25.1353C141.001 24.5476 145.065 29.1292 145.613 33.8426C145.962 36.8482 143.967 38.7418 144.094 39.8348C144.189 40.6545 146.228 42.7022 146.561 45.5713C147.339 52.2656 147.913 58.9839 148.691 65.6782C149.255 70.5283 146.944 74.4664 141.889 75.0541Z" fill="#509EC7"/>
<path d="M18.8616 122.505C16.3908 122.349 14.8817 121.151 14.2788 118.701C11.5932 107.782 10.4609 96.2712 9.09675 85.1597C9.04114 84.9494 8.99422 84.6019 9.00725 84.396C9.16358 81.9252 10.816 80.8584 13.1495 81.006C15.5516 81.158 16.5716 82.4629 16.8401 84.7538C17.4918 90.79 17.8603 96.9461 18.9281 102.94C19.0393 103.36 19.3122 105.583 20.0671 105.63C20.8221 105.678 21.4371 103.581 21.6005 103.178C23.767 97.2509 25.4662 91.0878 27.7701 85.1697C28.5911 83.0855 29.8403 81.8553 32.1738 82.003C34.6446 82.1593 35.7376 83.3999 36.2806 85.7082C37.7559 91.7965 38.6691 98.056 40.0714 104.209C40.1783 104.698 40.5927 106.86 41.3477 106.908C42.1026 106.956 42.7264 104.721 42.8211 104.314C44.5672 98.4981 45.6356 92.5018 47.1072 86.6688C47.572 84.7688 48.5641 83.2467 50.7603 83.3857C52.8193 83.516 55.1563 84.6974 55.0044 87.0996C54.9826 87.4428 54.8923 87.7816 54.802 88.1204C52.3661 98.3024 48.9504 110.903 45.3695 120.668C44.4539 123.16 42.8831 124.025 40.2751 123.86C38.1475 123.726 37.0076 122.137 36.5758 120.25C35.024 113.192 34.03 106.031 32.4782 98.9735C32.3714 98.4844 32.0725 96.6739 31.3175 96.6261C30.5626 96.5784 30.0379 98.3368 29.8702 98.8085C27.4412 105.615 25.6856 112.67 23.1237 119.399C22.3844 121.281 20.9892 122.64 18.8616 122.505ZM7.50601 84.1632C7.47996 84.575 7.51819 85.0598 7.56077 85.4759C8.38109 95.3816 10.82 109.111 12.9574 118.893C13.6498 122.107 15.7462 123.824 19.0406 124.033C21.7859 124.206 23.692 122.397 24.539 119.902C26.233 114.91 27.7254 109.836 29.4881 104.848C29.6557 104.376 30.1848 102.549 30.9397 102.597C31.6947 102.645 32.0579 104.528 32.1647 105.018C33.3577 110.123 34.1258 115.409 35.1084 120.57C35.5698 123.08 37.1597 125.179 39.905 125.353C43.268 125.566 45.5598 124.195 46.7248 121.03C50.6323 110.458 53.532 99.4787 56.2902 88.5591C56.3805 88.2203 56.5438 87.8172 56.5655 87.474C56.8 83.7678 53.867 82.2041 50.5727 81.9957C47.896 81.8263 46.0499 83.7767 45.5504 86.2258C44.7668 89.8972 43.9789 93.6373 42.9938 97.2271C42.8948 97.7032 42.3397 99.942 41.5161 99.8899C40.7611 99.8421 40.351 97.6111 40.2441 97.122C39.3849 93.2777 38.5985 89.3691 37.7436 85.4562C37.1067 82.4529 35.4221 80.7614 32.265 80.5617C29.1765 80.3663 27.2922 81.8319 26.2819 84.731C25.5165 87.0255 22.1572 98.734 20.7846 98.6471C20.0296 98.5993 19.7611 96.3084 19.7186 95.8923C19.1937 92.2069 18.6133 88.3114 18.4317 84.6478C18.2709 81.7435 16.668 79.8505 13.6481 79.6594C10.491 79.4596 7.72748 80.6629 7.50601 84.1632ZM19.1501 126.658C14.2085 126.345 11.2503 124.091 10.3189 119.209C8.19542 108.118 6.41509 97.0489 4.91798 85.86C4.81979 85.2336 4.72161 84.6072 4.76503 83.9209C5.10375 78.5675 9.70385 76.6535 14.4395 76.9532C18.4889 77.2094 20.9189 80.1883 21.0875 84.0578C21.1127 84.7485 21.436 88.3522 21.7791 88.3739C22.2596 88.4043 23.6052 84.5617 23.7816 83.9527C25.3122 79.3638 28.3164 77.6244 33.0521 77.9241C36.9642 78.1716 39.8016 81.2453 40.3907 85.0035C40.4889 85.6299 41.2023 89.6028 41.7513 89.6375C42.0945 89.6592 42.8694 86.1251 42.9771 85.5117C43.4818 81.8915 46.624 79.0584 50.3302 79.2929C54.9286 79.5839 59.6539 82.2257 59.3239 87.4418C59.2761 88.1968 58.9625 88.7971 58.8505 89.4791C56.5728 100.429 52.7295 111.073 49.3024 121.675C47.7631 126.401 44.3384 128.252 39.4655 127.943C32.3963 127.496 32.5647 120.478 31.3761 115.304C31.2692 114.815 30.966 113.073 30.211 113.025C29.5247 112.982 29.0043 114.671 28.8367 115.143C27.1383 120.204 26.2879 127.11 19.1501 126.658Z" fill="#509EC7"/>
<path d="M83.9051 116.322C85.0751 120.92 78.1193 124.819 74.4538 125.751C67.7891 127.447 61.0803 122.555 59.4524 116.157C57.4854 108.425 59.4541 100.545 67.9849 98.3741C74.6496 96.6784 80.789 101.006 82.4338 107.471C82.8577 109.137 81.9645 110.926 80.2316 111.366L66.4357 114.876L66.2867 115.127C67.0667 118.193 70.0121 120.566 73.2778 119.735C78.8762 118.311 77.7945 114.896 80.527 114.201C81.9266 113.845 83.5659 114.989 83.9051 116.322ZM69.2579 103.656C67.3918 104.131 64.6324 106.394 65.192 108.594C65.3785 109.327 66.1128 109.424 66.7126 109.271C69.0453 108.678 71.2943 108.034 73.627 107.441C74.2268 107.288 74.8921 106.835 74.7055 106.102C74.1799 104.036 71.0573 103.198 69.2579 103.656ZM69.614 105.056C70.2138 104.903 72.115 104.845 72.3185 105.645C72.4711 106.245 71.6386 106.599 71.2387 106.7L68.7061 107.345C68.3063 107.446 67.4059 107.534 67.2533 106.934C67.0498 106.134 68.9475 105.225 69.614 105.056ZM74.7093 127.035C79.2413 125.882 82.2696 124.118 84.5202 119.855C85.1989 118.618 85.5941 117.382 85.238 115.982C84.6615 113.716 82.2709 112.409 80.0715 112.968C76.7392 113.816 77.6706 117.198 73.2053 118.334C71.939 118.656 69.0345 118.118 68.6445 116.585C68.4919 115.985 69.0906 115.549 69.6237 115.414L80.0207 112.768C82.7532 112.073 84.5976 110.398 83.8345 107.398C81.9693 100.067 75.2435 95.1081 67.6458 97.0412C58.5152 99.3643 56.0338 108.298 58.1534 116.629C59.9508 123.693 67.4448 128.883 74.7093 127.035ZM75.3367 129.501C66.8725 131.654 57.8568 125.504 55.7541 117.239C53.3123 107.642 56.5718 97.3041 67.0354 94.6419C75.0996 92.5901 83.9119 97.9409 85.9637 106.005C86.4215 107.805 86.6952 109.438 86.2358 111.258C86.1206 111.642 86.1048 111.859 86.2066 112.259C86.444 113.192 87.2473 113.839 87.5186 114.905C89.1295 121.237 82.2013 127.754 76.603 129.178L75.3367 129.501Z" fill="#509EC7"/>
<path d="M141.564 123.704C138.632 123.324 131.349 121.2 131.853 117.312C132.048 115.812 133.47 114.471 135.038 114.675C136.948 114.922 138.933 117.26 142.343 117.703C143.707 117.88 145.619 117.573 145.832 115.936C146.398 111.572 132.241 112.717 133.427 103.578C134.135 98.1222 138.687 95.1068 144.007 95.7971C146.667 96.1423 152.657 97.5437 152.187 101.158C151.984 102.727 150.434 103.982 148.866 103.778C147.161 103.557 145.811 102.203 144.106 101.982C142.81 101.814 140.542 101.658 140.312 103.431C139.86 106.909 153.822 107.265 152.672 116.131C151.919 121.927 146.952 124.403 141.564 123.704ZM130.48 117.204C129.878 121.841 137.96 124.762 141.574 125.231C147.848 126.045 153.23 122.514 154.062 116.103C154.77 110.647 149.891 107.101 145.377 105.545C144.517 105.225 143.111 104.835 142.355 104.251C142.168 104.088 141.922 103.848 141.957 103.575C142.019 103.098 143.051 103.163 143.392 103.207C145.438 103.472 146.975 104.989 148.816 105.228C151.067 105.52 153.277 103.449 153.56 101.267C154.091 97.1751 148.012 94.8606 144.806 94.4446C138.396 93.6127 132.981 96.8628 132.114 103.546C131.459 108.593 135.819 111.863 140.06 113.385C141.184 113.808 143.204 114.278 144.079 115.016C144.197 115.17 144.444 115.41 144.408 115.682C144.302 116.501 142.725 116.365 142.111 116.286C139.383 115.932 137.466 113.603 134.806 113.257C132.76 112.992 130.728 115.294 130.48 117.204ZM141.196 127.609C136.013 126.937 127.338 123.245 128.179 116.766C128.675 112.947 131.236 112.447 131.395 111.22C131.502 110.402 129.341 107.278 129.872 103.186C130.819 95.8888 137.555 91.0071 144.784 91.9452C149.899 92.609 156.614 95.9074 155.817 102.045C155.481 104.637 153.421 105.548 153.27 106.708C153.12 107.867 157.071 111.084 156.39 116.336C155.399 123.974 148.698 128.583 141.196 127.609Z" fill="#509EC7"/>
<path d="M110.798 122.116C106.733 123.15 104.221 120.809 103.555 120.978C102.688 121.199 103.397 123.147 100.931 123.775C98.4649 124.402 97.108 122.973 96.4648 120.724C94.689 114.861 93.146 108.796 91.6368 102.864C90.382 97.9323 89.4107 92.9992 88.1559 88.0674C87.5285 85.6014 88.6217 83.7621 91.0876 83.1347C92.8205 82.6939 94.261 84.1723 94.651 85.7052C95.3632 88.5044 96.0257 91.3871 96.7379 94.1863C96.9414 94.9861 97.3291 95.9519 98.3288 95.6975C99.595 95.3753 101.023 93.7348 103.155 93.1922C111.086 91.1743 117.378 96.1019 119.311 103.7C121.194 111.097 119.062 120.013 110.798 122.116ZM108.537 115.737C113.202 114.55 113.498 109.578 112.498 105.646C111.582 102.047 108.483 98.791 104.484 99.8084C100.552 100.809 99.4352 105.067 100.334 108.599C101.3 112.398 103.871 116.924 108.537 115.737ZM108.164 114.271C104.498 115.203 102.431 111.543 101.668 108.543C100.973 105.811 101.708 102.005 104.84 101.208C108.039 100.394 110.386 103.203 111.098 106.002C111.878 109.068 112.029 113.287 108.164 114.271ZM110.905 123.65C115.97 122.361 119.871 117.891 121.001 112.85C121.738 109.611 121.324 106.31 120.527 103.178C118.322 94.5134 111.113 89.6064 102.249 91.8616C101.116 92.1499 100.252 92.9374 99.2524 93.1918C98.3193 93.4292 97.8832 92.8305 97.6797 92.0307C96.8149 88.6318 96.113 80.295 90.9145 81.6176C87.8488 82.3976 86.0406 84.7736 86.8545 87.9727C88.2789 93.571 89.4198 99.1706 90.8441 104.769C92.2176 110.167 93.808 115.581 95.1815 120.98C95.9446 123.979 97.9377 125.956 101.203 125.125C102.603 124.769 103.382 123.648 104.582 123.343C105.782 123.037 107.972 124.396 110.905 123.65ZM122.942 102.35C125.451 112.214 122.013 123.52 111.216 126.267C108.816 126.878 106.528 125.97 105.461 126.241C104.395 126.512 103.548 127.367 102.348 127.672C97.2164 128.977 94.1025 126.222 92.7483 121.457C91.1749 116.109 89.7517 110.795 88.3782 105.396C87.0047 99.9979 85.9814 94.5814 84.6079 89.183C83.3022 84.0512 85.5213 80.2223 90.6531 78.9167C94.252 78.001 97.5331 80.8562 98.3979 84.2552C98.7709 85.7214 98.9283 87.4554 99.4346 88.8877C99.6878 89.6039 99.9386 89.753 100.672 89.5664C101.005 89.4816 101.388 89.3133 101.721 89.2285C111.585 86.7189 120.483 92.6864 122.942 102.35ZM107.502 111.672C109.168 111.248 109.258 108.812 108.919 107.479C108.529 105.946 107.501 103.298 105.501 103.807C103.569 104.299 104.048 107.299 104.404 108.699C104.743 110.032 105.769 112.112 107.502 111.672Z" fill="#509EC7"/>
<path d="M235.577 117.971C236.769 122.564 229.832 126.496 226.17 127.446C219.514 129.173 212.782 124.313 211.124 117.922C209.12 110.201 211.051 102.311 219.572 100.1C226.228 98.3725 232.388 102.671 234.064 109.128C234.495 110.792 233.611 112.585 231.88 113.034L218.101 116.609L217.953 116.861C218.748 119.923 221.704 122.282 224.966 121.435C230.558 119.984 229.46 116.575 232.189 115.867C233.587 115.504 235.231 116.64 235.577 117.971ZM220.87 105.376C219.006 105.859 216.257 108.136 216.827 110.332C217.017 111.065 217.752 111.158 218.351 111.003C220.681 110.398 222.927 109.744 225.257 109.14C225.856 108.984 226.519 108.528 226.329 107.796C225.793 105.732 222.667 104.909 220.87 105.376ZM221.232 106.774C221.832 106.618 223.732 106.551 223.94 107.35C224.095 107.949 223.264 108.307 222.865 108.41L220.336 109.067C219.936 109.17 219.036 109.262 218.881 108.663C218.674 107.864 220.567 106.946 221.232 106.774ZM226.432 128.728C230.959 127.553 233.978 125.775 236.209 121.502C236.882 120.262 237.271 119.024 236.908 117.626C236.321 115.363 233.924 114.066 231.727 114.636C228.399 115.5 229.347 118.878 224.887 120.035C223.622 120.363 220.715 119.839 220.318 118.308C220.162 117.708 220.759 117.269 221.291 117.131L231.676 114.437C234.405 113.728 236.241 112.044 235.464 109.049C233.564 101.726 226.815 96.7993 219.226 98.7684C210.107 101.135 207.668 110.08 209.827 118.401C211.658 125.457 219.176 130.611 226.432 128.728ZM227.071 131.191C218.617 133.385 209.572 127.277 207.431 119.023C204.943 109.437 208.154 99.084 218.604 96.3721C226.659 94.282 235.497 99.5909 237.587 107.645C238.053 109.443 238.334 111.075 237.884 112.897C237.77 113.281 237.755 113.498 237.859 113.898C238.101 114.83 238.907 115.473 239.184 116.538C240.825 122.862 233.927 129.412 228.336 130.863L227.071 131.191Z" fill="#509EC7"/>
<path d="M198.753 123.663C198.452 126.743 194.579 126.78 192.32 126.559C187.256 126.065 185.913 122.825 186.299 118.164C186.665 113.708 187.092 109.328 187.527 104.879C187.78 102.278 182.892 104.219 183.28 100.249C183.741 95.5266 188.236 98.3146 188.41 96.5351C188.704 93.5235 188.046 87.517 192.769 87.9778C196.465 88.3385 195.029 94.5553 194.795 96.9509C194.568 99.278 201.495 96.9828 201.06 101.432C200.987 102.185 200.294 104.328 199.336 104.235C197.914 104.649 194.141 103.659 193.987 105.233L192.812 117.279C192.337 122.139 199.287 118.187 198.753 123.663ZM185.952 104.725C186.083 104.807 186.206 104.957 186.193 105.094C185.772 109.406 185.426 113.656 185.005 117.968C184.324 124.95 187.115 127.502 193.823 128.157C197.519 128.518 199.799 126.391 200.153 122.763C200.354 120.71 198.796 118.969 196.811 118.775C195.853 118.681 193.958 118.98 194.125 117.269L195.154 106.729C195.374 104.47 201.746 107.856 202.281 102.38C202.548 99.6422 201.413 97.113 198.401 96.8191C197.991 96.779 197.573 96.8074 197.231 96.774C194.493 96.5068 199.555 87.12 192.642 86.4453C187.988 85.9911 187.624 91.1379 187.303 94.4232C187.116 96.3397 183.16 95.8154 182.938 97.383C182.427 98.3696 182.046 99.438 181.939 100.533C181.725 102.723 183.55 104.56 185.672 104.767C185.74 104.773 185.884 104.718 185.952 104.725ZM193.706 130.771C185.629 129.983 181.905 126.372 182.72 118.022C183.041 114.736 183.293 111.444 183.613 108.159C183.774 106.516 179.248 105.453 179.762 100.182C180.083 96.8971 180.926 94.6301 184.153 93.4249C184.727 93.2045 185.24 92.909 185.307 92.2246C185.788 87.2965 187.769 83.275 193.45 83.8294C198.173 84.2903 199.081 89.1466 198.7 93.048C198.613 93.9378 199.209 94.2032 199.88 94.4069C203.845 95.5539 204.942 99.1848 204.574 102.949C203.967 109.178 197.546 108.413 197.301 108.804C197.107 110.789 196.838 112.835 196.645 114.82C196.558 115.71 197.065 116.174 197.873 116.391C202.31 117.653 202.651 119.829 202.23 124.141C201.823 128.316 197.744 131.165 193.706 130.771Z" fill="#509EC7"/>
<path d="M168.514 124.148C165.903 124.246 164.879 122.633 164.651 120.232C164.429 117.97 164.41 115.631 164.325 113.363C164.15 108.69 163.835 103.953 163.866 99.2723C163.847 96.9332 165.178 95.7134 167.515 95.6259C169.714 95.5435 171.272 96.7239 171.357 98.9917C171.62 106.001 171.742 112.947 172.005 119.957C172.092 122.294 170.988 124.055 168.514 124.148ZM167.152 91.4416C164.678 91.5342 162.607 89.5472 162.515 87.0732C162.425 84.668 164.333 82.3255 166.807 82.2328C169.624 82.1273 171.432 84.4682 171.533 87.1484C171.618 89.4162 169.282 91.3618 167.152 91.4416ZM167.206 92.8847C170.161 92.774 173.092 90.1868 172.976 87.0943C172.847 83.6582 170.326 80.6558 166.753 80.7897C163.523 80.9106 160.956 84.0348 161.074 87.196C161.198 90.4947 163.907 93.0083 167.206 92.8847ZM168.568 125.591C171.592 125.478 173.576 123.339 173.463 120.315C173.196 113.168 173.131 105.945 172.864 98.7976C172.745 95.6364 170.484 94.0695 167.461 94.1827C164.437 94.296 162.165 96.1016 162.283 99.2628C162.546 106.272 162.946 113.277 163.208 120.287C163.329 123.516 165.201 125.717 168.568 125.591ZM168.669 128.271C161.453 128.542 160.328 122.39 160.112 116.618C159.903 111.051 159.832 105.479 159.624 99.9129C159.515 97.0266 161.011 94.6996 160.98 93.8749C160.939 92.7754 158.543 91.2823 158.404 87.5713C158.234 83.0356 161.908 78.2184 166.65 78.0408C171.735 77.8503 175.428 82.7357 175.605 87.4775C175.719 90.5013 173.581 92.233 173.622 93.3326C173.653 94.1572 175.525 96.3581 175.633 99.2444C175.885 105.979 175.932 112.722 176.184 119.456C176.367 124.336 173.754 128.081 168.669 128.271Z" fill="#509EC7"/>
</svg>
